{"glyphs":{"0":{"ha":688,"x_min":0,"x_max":0,"o":""},"1":{"ha":688,"x_min":0,"x_max":0,"o":""},"2":{"ha":688,"x_min":0,"x_max":0,"o":""},"3":{"ha":688,"x_min":0,"x_max":0,"o":""},"4":{"ha":688,"x_min":0,"x_max":0,"o":""},"5":{"ha":688,"x_min":0,"x_max":0,"o":""},"6":{"ha":688,"x_min":0,"x_max":0,"o":""},"7":{"ha":688,"x_min":0,"x_max":0,"o":""},"8":{"ha":688,"x_min":0,"x_max":0,"o":""},"9":{"ha":688,"x_min":0,"x_max":0,"o":""}," ":{"ha":816,"x_min":0,"x_max":0,"o":""},"!":{"ha":456,"x_min":0,"x_max":0,"o":""},"\"":{"ha":456,"x_min":0,"x_max":0,"o":""},"#":{"ha":906,"x_min":0,"x_max":0,"o":""},"$":{"ha":688,"x_min":0,"x_max":0,"o":""},"%":{"ha":1092,"x_min":0,"x_max":0,"o":""},"&":{"ha":1141,"x_min":0,"x_max":0,"o":""},"'":{"ha":235,"x_min":0,"x_max":0,"o":""},"(":{"ha":514,"x_min":0,"x_max":0,"o":""},")":{"ha":514,"x_min":0,"x_max":0,"o":""},"*":{"ha":694,"x_min":0,"x_max":0,"o":""},"+":{"ha":688,"x_min":0,"x_max":0,"o":""},",":{"ha":378,"x_min":0,"x_max":0,"o":""},"-":{"ha":454,"x_min":0,"x_max":0,"o":""},".":{"ha":378,"x_min":0,"x_max":0,"o":""},"/":{"ha":386,"x_min":0,"x_max":0,"o":""},":":{"ha":378,"x_min":0,"x_max":0,"o":""},";":{"ha":378,"x_min":0,"x_max":0,"o":""},"<":{"ha":688,"x_min":0,"x_max":0,"o":""},"=":{"ha":688,"x_min":0,"x_max":0,"o":""},">":{"ha":688,"x_min":0,"x_max":0,"o":""},"?":{"ha":507,"x_min":0,"x_max":0,"o":""},"@":{"ha":1369,"x_min":0,"x_max":0,"o":""},"A":{"ha":1356,"x_min":136,"x_max":1221,"o":"m 1096 1633 q 1221 1522 1185 1633 l 1221 8 q 1215 3 1221 3 l 1074 3 q 949 114 985 3 l 949 385 q 787 548 949 548 l 578 548 q 420 467 455 548 q 407 377 407 431 l 407 125 q 304 3 407 40 q 277 0 290 0 l 141 0 q 136 5 136 0 l 136 1508 q 247 1633 136 1597 l 1096 1633 m 407 1199 l 407 982 q 570 819 407 819 l 789 819 q 944 914 910 819 q 949 955 949 940 l 949 1226 q 844 1356 949 1324 q 781 1362 814 1362 l 578 1362 q 407 1199 407 1362 z "},"B":{"ha":1286,"x_min":99,"x_max":1187,"o":"m 104 1630 l 1057 1630 q 1184 1516 1149 1630 l 1184 1514 q 1181 1221 1184 1453 q 1184 933 1184 987 q 1116 833 1184 884 q 1076 819 1086 819 l 1076 817 q 1181 727 1137 817 q 1187 705 1181 719 q 1184 309 1184 448 l 1184 127 q 1070 0 1184 35 l 104 0 q 99 5 99 0 l 99 1625 q 104 1630 100 1630 m 370 1356 l 370 952 l 780 952 q 907 1055 873 952 q 913 1118 913 1084 l 913 1191 q 829 1348 913 1312 q 780 1356 798 1356 l 370 1356 m 370 681 l 370 271 l 747 271 q 905 355 868 271 q 913 404 913 386 l 913 572 q 823 675 913 633 q 785 681 803 681 l 370 681 z "},"C":{"ha":1289,"x_min":102,"x_max":1187,"o":"m 1059 1628 q 1184 1527 1145 1628 q 1187 1497 1187 1509 l 1187 1487 q 1089 1362 1187 1396 q 1059 1356 1078 1356 l 541 1356 q 373 1188 373 1356 l 373 439 q 541 271 373 271 l 1059 271 q 1184 171 1145 271 q 1187 141 1187 153 l 1187 130 q 1089 5 1187 40 q 1059 0 1078 0 l 229 0 q 102 114 136 0 l 102 1500 q 216 1628 102 1593 l 1059 1628 z "},"D":{"ha":1292,"x_min":103,"x_max":1188,"o":"m 109 1628 l 1061 1628 q 1188 1514 1154 1628 l 1188 127 q 1074 0 1188 35 l 109 0 q 103 5 103 0 l 103 1622 q 109 1628 104 1628 m 374 1356 l 374 271 l 749 271 q 917 439 917 271 l 917 1188 q 749 1356 917 1356 l 374 1356 z "},"E":{"ha":1289,"x_min":102,"x_max":1187,"o":"m 1059 1628 q 1184 1527 1145 1628 q 1187 1497 1187 1509 l 1187 1487 q 1089 1362 1187 1396 q 1059 1356 1078 1356 l 541 1356 q 373 1188 373 1356 l 373 949 l 788 949 q 913 849 874 949 q 916 819 916 831 l 916 808 q 818 684 916 718 q 788 678 807 678 l 373 678 l 373 439 q 541 271 373 271 l 1059 271 q 1184 171 1145 271 q 1187 141 1187 153 l 1187 130 q 1089 5 1187 40 q 1059 0 1078 0 l 229 0 q 102 114 136 0 l 102 1500 q 216 1628 102 1593 l 1059 1628 z "},"F":{"ha":1284,"x_min":100,"x_max":1185,"o":"m 1057 1628 q 1182 1527 1143 1628 q 1185 1497 1185 1509 l 1185 1487 q 1087 1362 1185 1396 q 1057 1356 1076 1356 l 539 1356 q 371 1188 371 1356 l 371 949 l 786 949 q 911 849 872 949 q 913 819 913 831 l 913 808 q 816 684 913 718 q 786 678 805 678 l 371 678 l 371 5 q 366 0 371 0 l 227 0 q 100 114 134 0 l 100 1500 q 214 1628 100 1593 l 1057 1628 z "},"G":{"ha":1289,"x_min":102,"x_max":1187,"o":"m 1059 1628 q 1184 1527 1145 1628 q 1187 1497 1187 1509 l 1187 1487 q 1089 1362 1187 1396 q 1059 1356 1078 1356 l 541 1356 q 373 1188 373 1356 l 373 439 q 541 271 373 271 l 747 271 q 916 439 916 271 l 916 678 l 772 678 q 647 779 686 678 q 644 808 644 797 l 644 819 q 750 947 644 913 l 766 949 q 1067 947 1028 947 q 1176 868 1128 947 q 1187 819 1187 838 l 1187 127 q 1073 0 1187 35 l 229 0 q 102 114 136 0 l 102 1500 q 216 1628 102 1593 l 1059 1628 z "},"H":{"ha":1292,"x_min":103,"x_max":1188,"o":"m 233 1628 l 244 1628 q 369 1530 334 1628 q 374 1500 374 1519 l 374 1085 q 543 917 374 917 l 749 917 q 917 1085 917 917 l 917 1500 q 1017 1625 917 1586 q 1047 1628 1036 1628 l 1058 1628 q 1183 1530 1148 1628 q 1188 1500 1188 1519 l 1188 127 q 1088 3 1188 41 q 1058 0 1069 0 l 1047 0 q 922 98 957 0 q 917 127 917 109 l 917 477 q 749 646 917 646 l 543 646 q 374 477 374 646 l 374 127 q 274 3 374 41 q 244 0 256 0 l 233 0 q 109 98 143 0 q 103 127 103 109 l 103 1500 q 203 1625 103 1586 q 233 1628 222 1628 z "},"I":{"ha":475,"x_min":102,"x_max":373,"o":"m 232 1628 l 243 1628 q 368 1530 333 1628 q 373 1500 373 1519 l 373 127 q 273 3 373 41 q 243 0 254 0 l 232 0 q 107 98 142 0 q 102 127 102 109 l 102 1500 q 202 1625 102 1586 q 232 1628 220 1628 z "},"J":{"ha":1356,"x_min":136,"x_max":1221,"o":"m 534 1628 l 944 1628 l 952 1622 l 1093 1622 q 1221 1508 1186 1622 l 1221 127 q 1107 0 1221 35 l 263 0 q 136 114 170 0 l 136 686 q 236 811 136 772 q 266 814 254 814 l 277 814 q 401 716 367 814 q 407 686 407 705 l 407 439 q 575 271 407 271 l 781 271 q 949 439 949 271 l 949 1188 q 781 1356 949 1356 l 534 1356 q 410 1457 448 1356 q 407 1487 407 1475 l 407 1497 q 505 1622 407 1588 q 534 1628 515 1628 z "},"K":{"ha":1294,"x_min":104,"x_max":1190,"o":"m 235 1630 l 245 1630 q 370 1533 336 1630 q 376 1503 376 1522 l 376 1120 q 544 952 376 952 l 785 952 q 913 1055 878 952 q 918 1118 918 1084 l 918 1500 q 1019 1625 918 1586 q 1048 1628 1037 1628 l 1059 1628 q 1184 1530 1149 1628 q 1190 1500 1190 1519 l 1190 941 q 1095 819 1190 859 l 1081 817 l 1081 814 q 1176 743 1128 814 q 1190 689 1190 713 l 1190 127 q 1089 3 1190 41 q 1059 0 1071 0 l 1048 0 q 924 98 958 0 q 918 127 918 109 l 918 513 q 750 681 918 681 l 544 681 q 376 513 376 681 l 376 127 q 275 3 376 41 q 245 0 257 0 l 235 0 q 110 98 144 0 q 104 127 104 109 l 104 1503 q 205 1628 104 1589 q 235 1630 223 1630 z "},"L":{"ha":1289,"x_min":102,"x_max":1187,"o":"m 232 1628 l 243 1628 q 368 1530 333 1628 q 373 1500 373 1519 l 373 439 q 541 271 373 271 l 1059 271 q 1184 171 1145 271 q 1187 141 1187 153 l 1187 130 q 1089 5 1187 40 q 1059 0 1078 0 l 229 0 q 102 114 136 0 l 102 1500 q 202 1625 102 1586 q 232 1628 220 1628 z "},"M":{"ha":1296,"x_min":105,"x_max":1190,"o":"m 520 1628 q 642 1533 602 1628 l 645 1516 l 650 1516 q 729 1617 650 1573 q 775 1628 751 1628 l 1063 1628 q 1190 1514 1156 1628 l 1190 127 q 1090 3 1190 41 q 1060 0 1072 0 l 1049 0 q 924 98 959 0 q 919 127 919 109 l 919 1188 q 835 1345 919 1309 q 786 1354 804 1354 l 783 1354 l 783 1213 q 683 1088 783 1126 q 653 1085 665 1085 l 642 1085 q 517 1183 552 1085 q 512 1213 512 1194 l 512 1354 l 509 1354 q 382 1251 416 1354 q 376 1188 376 1221 l 376 127 q 276 3 376 41 q 246 0 258 0 l 235 0 q 111 98 145 0 q 105 127 105 109 l 105 1500 q 219 1628 105 1593 l 520 1628 z "},"N":{"ha":1284,"x_min":100,"x_max":1185,"o":"m 371 1628 l 913 1088 l 913 1500 q 1014 1625 913 1586 q 1044 1628 1032 1628 l 1055 1628 q 1179 1530 1145 1628 q 1185 1500 1185 1519 l 1185 127 q 1084 3 1185 41 q 1055 0 1066 0 l 1044 0 q 919 98 954 0 q 913 127 913 109 l 913 697 q 371 1240 643 972 l 371 127 q 271 3 371 41 q 241 0 252 0 l 230 0 q 105 98 140 0 q 100 127 100 109 l 100 1500 q 214 1628 100 1593 l 371 1628 z "},"O":{"ha":1356,"x_min":136,"x_max":1221,"o":"m 1093 1628 q 1221 1514 1186 1628 l 1221 127 q 1107 0 1221 35 l 263 0 q 136 114 170 0 l 136 1500 q 250 1628 136 1593 l 1093 1628 m 407 1188 l 407 439 q 575 271 407 271 l 781 271 q 949 439 949 271 l 949 1188 q 781 1356 949 1356 l 575 1356 q 407 1188 407 1356 z "},"P":{"ha":1286,"x_min":100,"x_max":1185,"o":"m 1058 1628 q 1185 1514 1151 1628 l 1185 806 q 1072 678 1185 713 l 372 678 l 372 127 q 271 3 372 41 q 241 0 253 0 l 231 0 q 106 98 140 0 q 100 127 100 109 l 100 1500 q 214 1628 100 1593 l 1058 1628 m 372 1356 l 372 949 l 746 949 q 914 1118 914 949 l 914 1188 q 746 1356 914 1356 l 372 1356 z "},"Q":{"ha":1289,"x_min":47,"x_max":1241,"o":"m 1005 1629 q 1133 1515 1098 1629 l 1133 186 q 1241 20 1241 68 l 1241 1 q 1124 -129 1241 -98 l 1103 -129 q 951 -18 1023 -129 q 932 1 948 -18 l 175 1 q 47 115 82 1 l 47 1501 q 161 1629 47 1594 l 1005 1629 m 319 1190 l 319 441 q 487 273 319 273 l 628 273 q 590 368 590 315 q 696 500 590 465 q 723 503 710 503 l 726 503 q 859 419 803 503 l 861 419 l 861 1190 q 693 1358 861 1358 l 487 1358 q 319 1190 319 1358 z "},"R":{"ha":1292,"x_min":103,"x_max":1188,"o":"m 1061 1628 q 1188 1514 1154 1628 l 1188 806 q 1074 678 1188 713 l 708 678 q 1175 198 1174 214 q 1188 138 1188 165 l 1188 136 q 1077 3 1188 35 q 1055 0 1058 0 q 906 92 980 0 l 374 621 l 374 127 q 274 3 374 41 q 244 0 256 0 l 233 0 q 109 98 143 0 q 103 127 103 109 l 103 1500 q 217 1628 103 1593 l 1061 1628 m 374 1356 l 374 949 l 749 949 q 917 1118 917 949 l 917 1188 q 749 1356 917 1356 l 374 1356 z "},"S":{"ha":1356,"x_min":136,"x_max":1221,"o":"m 250 1628 q 646 1625 507 1625 l 711 1625 q 1107 1628 849 1625 q 1191 1581 1149 1620 q 1221 1497 1221 1539 l 1221 1487 q 1115 1359 1221 1392 q 1107 1356 1112 1359 q 711 1354 849 1354 l 572 1354 q 415 1270 452 1354 q 407 1221 407 1239 l 407 1080 q 510 952 407 987 q 537 949 524 949 l 1093 949 q 1221 836 1186 949 l 1221 127 q 1107 0 1221 35 l 263 0 q 138 100 177 0 q 136 130 136 119 l 136 141 q 233 266 136 231 q 263 271 244 271 l 781 271 q 949 439 949 271 l 949 510 q 781 678 949 678 l 263 678 q 136 792 170 678 l 136 1500 q 250 1628 136 1593 z "},"T":{"ha":1286,"x_min":100,"x_max":1185,"o":"m 228 1625 l 1058 1625 q 1183 1525 1144 1625 q 1185 1495 1185 1506 l 1185 1484 q 1088 1359 1185 1394 q 1058 1354 1077 1354 l 770 1354 l 770 510 q 768 114 770 372 q 722 30 760 72 q 637 0 679 0 l 627 0 q 496 111 531 0 q 499 510 499 377 l 499 1354 l 228 1354 q 103 1454 142 1354 q 100 1484 100 1472 l 100 1495 q 198 1619 100 1585 q 228 1625 209 1625 z "},"U":{"ha":1289,"x_min":102,"x_max":1187,"o":"m 232 1628 l 243 1628 q 368 1530 333 1628 q 373 1500 373 1519 l 373 439 q 541 271 373 271 l 747 271 q 916 439 916 271 l 916 1497 q 1016 1622 916 1584 q 1046 1625 1034 1625 l 1057 1625 q 1181 1527 1147 1625 q 1187 1497 1187 1516 l 1187 127 q 1073 0 1187 35 l 229 0 q 102 114 136 0 l 102 266 q 107 271 102 271 l 373 271 l 373 274 l 104 274 l 102 279 l 102 1500 q 202 1625 102 1586 q 232 1628 220 1628 z "},"V":{"ha":1292,"x_min":103,"x_max":1188,"o":"m 233 1630 l 244 1630 q 369 1533 334 1630 q 374 1503 374 1522 l 374 543 l 518 543 q 640 448 600 543 l 643 431 l 648 431 q 727 532 648 488 q 773 543 749 543 l 917 543 l 917 1500 q 1017 1625 917 1586 q 1047 1628 1036 1628 l 1058 1628 q 1183 1530 1148 1628 q 1188 1500 1188 1519 l 1188 401 q 1093 279 1188 319 q 1063 274 1074 274 q 781 271 1011 274 l 781 127 q 681 3 781 41 q 651 0 663 0 l 640 0 q 515 98 550 0 q 510 127 510 109 l 510 271 q 225 274 283 274 q 114 355 158 274 q 103 401 103 378 l 103 1503 q 203 1628 103 1589 q 233 1630 222 1630 z "},"W":{"ha":1289,"x_min":102,"x_max":1187,"o":"m 232 1628 l 243 1628 q 368 1530 333 1628 q 373 1500 373 1519 l 373 439 q 457 282 373 319 q 506 274 488 274 l 509 274 l 509 415 q 609 540 509 501 q 639 543 627 543 l 650 543 q 774 445 740 543 q 780 415 780 434 l 780 274 l 783 274 q 910 377 876 274 q 916 439 916 406 l 916 1500 q 1016 1625 916 1586 q 1046 1628 1034 1628 l 1057 1628 q 1181 1530 1147 1628 q 1187 1500 1187 1519 l 1187 127 q 1073 0 1187 35 l 772 0 q 650 95 690 0 l 647 111 l 642 111 q 563 11 642 54 q 517 0 541 0 l 229 0 q 102 114 136 0 l 102 1500 q 202 1625 102 1586 q 232 1628 220 1628 z "},"X":{"ha":1284,"x_min":100,"x_max":1185,"o":"m 230 1630 l 241 1630 q 366 1533 331 1630 q 371 1503 371 1522 l 371 1120 q 539 952 371 952 l 745 952 q 913 1120 913 952 l 913 1503 q 1014 1628 913 1589 q 1044 1630 1032 1630 l 1055 1630 q 1179 1533 1145 1630 q 1185 1503 1185 1522 l 1185 944 q 1090 822 1185 862 l 1074 819 l 1074 814 q 1174 735 1131 814 q 1185 689 1185 713 l 1185 127 q 1084 3 1185 41 q 1055 0 1066 0 l 1044 0 q 919 98 954 0 q 913 127 913 109 l 913 513 q 745 681 913 681 l 539 681 q 371 513 371 681 l 371 127 q 271 3 371 41 q 241 0 252 0 l 230 0 q 105 98 140 0 q 100 127 100 109 l 100 689 q 195 811 100 771 l 211 814 l 211 819 q 111 898 154 819 q 100 944 100 920 l 100 1503 q 200 1628 100 1589 q 230 1630 218 1630 z "},"Y":{"ha":1289,"x_min":106,"x_max":1183,"o":"m 236 1630 l 247 1630 q 372 1533 337 1630 q 377 1503 377 1522 l 377 1253 q 545 1085 377 1085 l 743 1085 q 911 1253 911 1085 l 911 1500 q 1012 1625 911 1586 q 1042 1628 1030 1628 l 1053 1628 q 1177 1530 1143 1628 q 1183 1500 1183 1519 l 1183 941 q 1069 814 1183 848 l 784 814 l 784 127 q 684 3 784 41 q 654 0 665 0 l 643 0 q 518 98 553 0 q 513 127 513 109 l 513 814 q 228 817 286 817 q 117 898 161 817 q 106 944 106 920 l 106 1503 q 206 1628 106 1589 q 236 1630 224 1630 z "},"Z":{"ha":1292,"x_min":103,"x_max":1188,"o":"m 228 1625 l 1063 1625 q 1188 1514 1152 1625 l 1188 1210 q 1077 1085 1188 1121 l 996 1085 q 426 271 426 277 l 1063 271 q 1188 160 1152 271 l 1188 125 q 1077 0 1188 36 l 228 0 q 103 111 139 0 l 103 418 q 214 543 103 507 l 277 543 q 627 1042 298 564 l 844 1351 l 844 1354 l 228 1354 q 103 1465 139 1354 l 103 1500 q 206 1622 103 1586 q 228 1625 217 1625 z "},"[":{"ha":514,"x_min":0,"x_max":0,"o":""},"\\":{"ha":386,"x_min":0,"x_max":0,"o":""},"]":{"ha":514,"x_min":0,"x_max":0,"o":""},"^":{"ha":688,"x_min":0,"x_max":0,"o":""},"_":{"ha":694,"x_min":0,"x_max":0,"o":""},"`":{"ha":694,"x_min":0,"x_max":0,"o":""},"a":{"ha":1356,"x_min":136,"x_max":1221,"o":"m 1096 1633 q 1221 1522 1185 1633 l 1221 8 q 1215 3 1221 3 l 1074 3 q 949 114 985 3 l 949 385 q 787 548 949 548 l 578 548 q 420 467 455 548 q 407 377 407 431 l 407 125 q 304 3 407 40 q 277 0 290 0 l 141 0 q 136 5 136 0 l 136 1508 q 247 1633 136 1597 l 1096 1633 m 407 1199 l 407 982 q 570 819 407 819 l 789 819 q 944 914 910 819 q 949 955 949 940 l 949 1226 q 844 1356 949 1324 q 781 1362 814 1362 l 578 1362 q 407 1199 407 1362 z "},"b":{"ha":1286,"x_min":99,"x_max":1187,"o":"m 104 1630 l 1057 1630 q 1184 1516 1149 1630 l 1184 1514 q 1181 1221 1184 1453 q 1184 933 1184 987 q 1116 833 1184 884 q 1076 819 1086 819 l 1076 817 q 1181 727 1137 817 q 1187 705 1181 719 q 1184 309 1184 448 l 1184 127 q 1070 0 1184 35 l 104 0 q 99 5 99 0 l 99 1625 q 104 1630 100 1630 m 370 1356 l 370 952 l 780 952 q 907 1055 873 952 q 913 1118 913 1084 l 913 1191 q 829 1348 913 1312 q 780 1356 798 1356 l 370 1356 m 370 681 l 370 271 l 747 271 q 905 355 868 271 q 913 404 913 386 l 913 572 q 823 675 913 633 q 785 681 803 681 l 370 681 z "},"c":{"ha":1289,"x_min":102,"x_max":1187,"o":"m 1059 1628 q 1184 1527 1145 1628 q 1187 1497 1187 1509 l 1187 1487 q 1089 1362 1187 1396 q 1059 1356 1078 1356 l 541 1356 q 373 1188 373 1356 l 373 439 q 541 271 373 271 l 1059 271 q 1184 171 1145 271 q 1187 141 1187 153 l 1187 130 q 1089 5 1187 40 q 1059 0 1078 0 l 229 0 q 102 114 136 0 l 102 1500 q 216 1628 102 1593 l 1059 1628 z "},"d":{"ha":1292,"x_min":103,"x_max":1188,"o":"m 109 1628 l 1061 1628 q 1188 1514 1154 1628 l 1188 127 q 1074 0 1188 35 l 109 0 q 103 5 103 0 l 103 1622 q 109 1628 104 1628 m 374 1356 l 374 271 l 749 271 q 917 439 917 271 l 917 1188 q 749 1356 917 1356 l 374 1356 z "},"e":{"ha":1289,"x_min":102,"x_max":1187,"o":"m 1059 1628 q 1184 1527 1145 1628 q 1187 1497 1187 1509 l 1187 1487 q 1089 1362 1187 1396 q 1059 1356 1078 1356 l 541 1356 q 373 1188 373 1356 l 373 949 l 788 949 q 913 849 874 949 q 916 819 916 831 l 916 808 q 818 684 916 718 q 788 678 807 678 l 373 678 l 373 439 q 541 271 373 271 l 1059 271 q 1184 171 1145 271 q 1187 141 1187 153 l 1187 130 q 1089 5 1187 40 q 1059 0 1078 0 l 229 0 q 102 114 136 0 l 102 1500 q 216 1628 102 1593 l 1059 1628 z "},"f":{"ha":1284,"x_min":100,"x_max":1185,"o":"m 1057 1628 q 1182 1527 1143 1628 q 1185 1497 1185 1509 l 1185 1487 q 1087 1362 1185 1396 q 1057 1356 1076 1356 l 539 1356 q 371 1188 371 1356 l 371 949 l 786 949 q 911 849 872 949 q 913 819 913 831 l 913 808 q 816 684 913 718 q 786 678 805 678 l 371 678 l 371 5 q 366 0 371 0 l 227 0 q 100 114 134 0 l 100 1500 q 214 1628 100 1593 l 1057 1628 z "},"g":{"ha":1289,"x_min":102,"x_max":1187,"o":"m 1059 1628 q 1184 1527 1145 1628 q 1187 1497 1187 1509 l 1187 1487 q 1089 1362 1187 1396 q 1059 1356 1078 1356 l 541 1356 q 373 1188 373 1356 l 373 439 q 541 271 373 271 l 747 271 q 916 439 916 271 l 916 678 l 772 678 q 647 779 686 678 q 644 808 644 797 l 644 819 q 750 947 644 913 l 766 949 q 1067 947 1028 947 q 1176 868 1128 947 q 1187 819 1187 838 l 1187 127 q 1073 0 1187 35 l 229 0 q 102 114 136 0 l 102 1500 q 216 1628 102 1593 l 1059 1628 z "},"h":{"ha":1292,"x_min":103,"x_max":1188,"o":"m 233 1628 l 244 1628 q 369 1530 334 1628 q 374 1500 374 1519 l 374 1085 q 543 917 374 917 l 749 917 q 917 1085 917 917 l 917 1500 q 1017 1625 917 1586 q 1047 1628 1036 1628 l 1058 1628 q 1183 1530 1148 1628 q 1188 1500 1188 1519 l 1188 127 q 1088 3 1188 41 q 1058 0 1069 0 l 1047 0 q 922 98 957 0 q 917 127 917 109 l 917 477 q 749 646 917 646 l 543 646 q 374 477 374 646 l 374 127 q 274 3 374 41 q 244 0 256 0 l 233 0 q 109 98 143 0 q 103 127 103 109 l 103 1500 q 203 1625 103 1586 q 233 1628 222 1628 z "},"i":{"ha":475,"x_min":102,"x_max":373,"o":"m 232 1628 l 243 1628 q 368 1530 333 1628 q 373 1500 373 1519 l 373 127 q 273 3 373 41 q 243 0 254 0 l 232 0 q 107 98 142 0 q 102 127 102 109 l 102 1500 q 202 1625 102 1586 q 232 1628 220 1628 z "},"j":{"ha":1356,"x_min":136,"x_max":1221,"o":"m 534 1628 l 944 1628 l 952 1622 l 1093 1622 q 1221 1508 1186 1622 l 1221 127 q 1107 0 1221 35 l 263 0 q 136 114 170 0 l 136 686 q 236 811 136 772 q 266 814 254 814 l 277 814 q 401 716 367 814 q 407 686 407 705 l 407 439 q 575 271 407 271 l 781 271 q 949 439 949 271 l 949 1188 q 781 1356 949 1356 l 534 1356 q 410 1457 448 1356 q 407 1487 407 1475 l 407 1497 q 505 1622 407 1588 q 534 1628 515 1628 z "},"k":{"ha":1294,"x_min":104,"x_max":1190,"o":"m 235 1630 l 245 1630 q 370 1533 336 1630 q 376 1503 376 1522 l 376 1120 q 544 952 376 952 l 785 952 q 913 1055 878 952 q 918 1118 918 1084 l 918 1500 q 1019 1625 918 1586 q 1048 1628 1037 1628 l 1059 1628 q 1184 1530 1149 1628 q 1190 1500 1190 1519 l 1190 941 q 1095 819 1190 859 l 1081 817 l 1081 814 q 1176 743 1128 814 q 1190 689 1190 713 l 1190 127 q 1089 3 1190 41 q 1059 0 1071 0 l 1048 0 q 924 98 958 0 q 918 127 918 109 l 918 513 q 750 681 918 681 l 544 681 q 376 513 376 681 l 376 127 q 275 3 376 41 q 245 0 257 0 l 235 0 q 110 98 144 0 q 104 127 104 109 l 104 1503 q 205 1628 104 1589 q 235 1630 223 1630 z "},"l":{"ha":1289,"x_min":102,"x_max":1187,"o":"m 232 1628 l 243 1628 q 368 1530 333 1628 q 373 1500 373 1519 l 373 439 q 541 271 373 271 l 1059 271 q 1184 171 1145 271 q 1187 141 1187 153 l 1187 130 q 1089 5 1187 40 q 1059 0 1078 0 l 229 0 q 102 114 136 0 l 102 1500 q 202 1625 102 1586 q 232 1628 220 1628 z "},"m":{"ha":1296,"x_min":105,"x_max":1190,"o":"m 520 1628 q 642 1533 602 1628 l 645 1516 l 650 1516 q 729 1617 650 1573 q 775 1628 751 1628 l 1063 1628 q 1190 1514 1156 1628 l 1190 127 q 1090 3 1190 41 q 1060 0 1072 0 l 1049 0 q 924 98 959 0 q 919 127 919 109 l 919 1188 q 835 1345 919 1309 q 786 1354 804 1354 l 783 1354 l 783 1213 q 683 1088 783 1126 q 653 1085 665 1085 l 642 1085 q 517 1183 552 1085 q 512 1213 512 1194 l 512 1354 l 509 1354 q 382 1251 416 1354 q 376 1188 376 1221 l 376 127 q 276 3 376 41 q 246 0 258 0 l 235 0 q 111 98 145 0 q 105 127 105 109 l 105 1500 q 219 1628 105 1593 l 520 1628 z "},"n":{"ha":1284,"x_min":100,"x_max":1185,"o":"m 371 1628 l 913 1088 l 913 1500 q 1014 1625 913 1586 q 1044 1628 1032 1628 l 1055 1628 q 1179 1530 1145 1628 q 1185 1500 1185 1519 l 1185 127 q 1084 3 1185 41 q 1055 0 1066 0 l 1044 0 q 919 98 954 0 q 913 127 913 109 l 913 697 q 371 1240 643 972 l 371 127 q 271 3 371 41 q 241 0 252 0 l 230 0 q 105 98 140 0 q 100 127 100 109 l 100 1500 q 214 1628 100 1593 l 371 1628 z "},"o":{"ha":1356,"x_min":136,"x_max":1221,"o":"m 1093 1628 q 1221 1514 1186 1628 l 1221 127 q 1107 0 1221 35 l 263 0 q 136 114 170 0 l 136 1500 q 250 1628 136 1593 l 1093 1628 m 407 1188 l 407 439 q 575 271 407 271 l 781 271 q 949 439 949 271 l 949 1188 q 781 1356 949 1356 l 575 1356 q 407 1188 407 1356 z "},"p":{"ha":1286,"x_min":100,"x_max":1185,"o":"m 1058 1628 q 1185 1514 1151 1628 l 1185 806 q 1072 678 1185 713 l 372 678 l 372 127 q 271 3 372 41 q 241 0 253 0 l 231 0 q 106 98 140 0 q 100 127 100 109 l 100 1500 q 214 1628 100 1593 l 1058 1628 m 372 1356 l 372 949 l 746 949 q 914 1118 914 949 l 914 1188 q 746 1356 914 1356 l 372 1356 z "},"q":{"ha":1289,"x_min":47,"x_max":1241,"o":"m 1005 1629 q 1133 1515 1098 1629 l 1133 186 q 1241 20 1241 68 l 1241 1 q 1124 -129 1241 -98 l 1103 -129 q 951 -18 1023 -129 q 932 1 948 -18 l 175 1 q 47 115 82 1 l 47 1501 q 161 1629 47 1594 l 1005 1629 m 319 1190 l 319 441 q 487 273 319 273 l 628 273 q 590 368 590 315 q 696 500 590 465 q 723 503 710 503 l 726 503 q 859 419 803 503 l 861 419 l 861 1190 q 693 1358 861 1358 l 487 1358 q 319 1190 319 1358 z "},"r":{"ha":1292,"x_min":103,"x_max":1188,"o":"m 1061 1628 q 1188 1514 1154 1628 l 1188 806 q 1074 678 1188 713 l 708 678 q 1175 198 1174 214 q 1188 138 1188 165 l 1188 136 q 1077 3 1188 35 q 1055 0 1058 0 q 906 92 980 0 l 374 621 l 374 127 q 274 3 374 41 q 244 0 256 0 l 233 0 q 109 98 143 0 q 103 127 103 109 l 103 1500 q 217 1628 103 1593 l 1061 1628 m 374 1356 l 374 949 l 749 949 q 917 1118 917 949 l 917 1188 q 749 1356 917 1356 l 374 1356 z "},"s":{"ha":1356,"x_min":136,"x_max":1221,"o":"m 250 1628 q 646 1625 507 1625 l 711 1625 q 1107 1628 849 1625 q 1191 1581 1149 1620 q 1221 1497 1221 1539 l 1221 1487 q 1115 1359 1221 1392 q 1107 1356 1112 1359 q 711 1354 849 1354 l 572 1354 q 415 1270 452 1354 q 407 1221 407 1239 l 407 1080 q 510 952 407 987 q 537 949 524 949 l 1093 949 q 1221 836 1186 949 l 1221 127 q 1107 0 1221 35 l 263 0 q 138 100 177 0 q 136 130 136 119 l 136 141 q 233 266 136 231 q 263 271 244 271 l 781 271 q 949 439 949 271 l 949 510 q 781 678 949 678 l 263 678 q 136 792 170 678 l 136 1500 q 250 1628 136 1593 z "},"t":{"ha":1286,"x_min":100,"x_max":1185,"o":"m 228 1625 l 1058 1625 q 1183 1525 1144 1625 q 1185 1495 1185 1506 l 1185 1484 q 1088 1359 1185 1394 q 1058 1354 1077 1354 l 770 1354 l 770 510 q 768 114 770 372 q 722 30 760 72 q 637 0 679 0 l 627 0 q 496 111 531 0 q 499 510 499 377 l 499 1354 l 228 1354 q 103 1454 142 1354 q 100 1484 100 1472 l 100 1495 q 198 1619 100 1585 q 228 1625 209 1625 z "},"u":{"ha":1289,"x_min":102,"x_max":1187,"o":"m 232 1628 l 243 1628 q 368 1530 333 1628 q 373 1500 373 1519 l 373 439 q 541 271 373 271 l 747 271 q 916 439 916 271 l 916 1497 q 1016 1622 916 1584 q 1046 1625 1034 1625 l 1057 1625 q 1181 1527 1147 1625 q 1187 1497 1187 1516 l 1187 127 q 1073 0 1187 35 l 229 0 q 102 114 136 0 l 102 266 q 107 271 102 271 l 373 271 l 373 274 l 104 274 l 102 279 l 102 1500 q 202 1625 102 1586 q 232 1628 220 1628 z "},"v":{"ha":1292,"x_min":103,"x_max":1188,"o":"m 233 1630 l 244 1630 q 369 1533 334 1630 q 374 1503 374 1522 l 374 543 l 518 543 q 640 448 600 543 l 643 431 l 648 431 q 727 532 648 488 q 773 543 749 543 l 917 543 l 917 1500 q 1017 1625 917 1586 q 1047 1628 1036 1628 l 1058 1628 q 1183 1530 1148 1628 q 1188 1500 1188 1519 l 1188 401 q 1093 279 1188 319 q 1063 274 1074 274 q 781 271 1011 274 l 781 127 q 681 3 781 41 q 651 0 663 0 l 640 0 q 515 98 550 0 q 510 127 510 109 l 510 271 q 225 274 283 274 q 114 355 158 274 q 103 401 103 378 l 103 1503 q 203 1628 103 1589 q 233 1630 222 1630 z "},"w":{"ha":1289,"x_min":102,"x_max":1187,"o":"m 232 1628 l 243 1628 q 368 1530 333 1628 q 373 1500 373 1519 l 373 439 q 457 282 373 319 q 506 274 488 274 l 509 274 l 509 415 q 609 540 509 501 q 639 543 627 543 l 650 543 q 774 445 740 543 q 780 415 780 434 l 780 274 l 783 274 q 910 377 876 274 q 916 439 916 406 l 916 1500 q 1016 1625 916 1586 q 1046 1628 1034 1628 l 1057 1628 q 1181 1530 1147 1628 q 1187 1500 1187 1519 l 1187 127 q 1073 0 1187 35 l 772 0 q 650 95 690 0 l 647 111 l 642 111 q 563 11 642 54 q 517 0 541 0 l 229 0 q 102 114 136 0 l 102 1500 q 202 1625 102 1586 q 232 1628 220 1628 z "},"x":{"ha":1284,"x_min":100,"x_max":1185,"o":"m 230 1630 l 241 1630 q 366 1533 331 1630 q 371 1503 371 1522 l 371 1120 q 539 952 371 952 l 745 952 q 913 1120 913 952 l 913 1503 q 1014 1628 913 1589 q 1044 1630 1032 1630 l 1055 1630 q 1179 1533 1145 1630 q 1185 1503 1185 1522 l 1185 944 q 1090 822 1185 862 l 1074 819 l 1074 814 q 1174 735 1131 814 q 1185 689 1185 713 l 1185 127 q 1084 3 1185 41 q 1055 0 1066 0 l 1044 0 q 919 98 954 0 q 913 127 913 109 l 913 513 q 745 681 913 681 l 539 681 q 371 513 371 681 l 371 127 q 271 3 371 41 q 241 0 252 0 l 230 0 q 105 98 140 0 q 100 127 100 109 l 100 689 q 195 811 100 771 l 211 814 l 211 819 q 111 898 154 819 q 100 944 100 920 l 100 1503 q 200 1628 100 1589 q 230 1630 218 1630 z "},"y":{"ha":1289,"x_min":106,"x_max":1183,"o":"m 236 1630 l 247 1630 q 372 1533 337 1630 q 377 1503 377 1522 l 377 1253 q 545 1085 377 1085 l 743 1085 q 911 1253 911 1085 l 911 1500 q 1012 1625 911 1586 q 1042 1628 1030 1628 l 1053 1628 q 1177 1530 1143 1628 q 1183 1500 1183 1519 l 1183 941 q 1069 814 1183 848 l 784 814 l 784 127 q 684 3 784 41 q 654 0 665 0 l 643 0 q 518 98 553 0 q 513 127 513 109 l 513 814 q 228 817 286 817 q 117 898 161 817 q 106 944 106 920 l 106 1503 q 206 1628 106 1589 q 236 1630 224 1630 z "},"z":{"ha":1292,"x_min":103,"x_max":1188,"o":"m 228 1625 l 1063 1625 q 1188 1514 1152 1625 l 1188 1210 q 1077 1085 1188 1121 l 996 1085 q 426 271 426 277 l 1063 271 q 1188 160 1152 271 l 1188 125 q 1077 0 1188 36 l 228 0 q 103 111 139 0 l 103 418 q 214 543 103 507 l 277 543 q 627 1042 298 564 l 844 1351 l 844 1354 l 228 1354 q 103 1465 139 1354 l 103 1500 q 206 1622 103 1586 q 228 1625 217 1625 z "},"{":{"ha":688,"x_min":0,"x_max":0,"o":""},"|":{"ha":688,"x_min":0,"x_max":0,"o":""},"}":{"ha":688,"x_min":0,"x_max":0,"o":""},"~":{"ha":688,"x_min":0,"x_max":0,"o":""},"¡":{"ha":456,"x_min":0,"x_max":0,"o":""},"¢":{"ha":772,"x_min":0,"x_max":0,"o":""},"£":{"ha":688,"x_min":0,"x_max":0,"o":""},"¤":{"ha":688,"x_min":0,"x_max":0,"o":""},"¥":{"ha":856,"x_min":0,"x_max":0,"o":""},"¦":{"ha":688,"x_min":0,"x_max":0,"o":""},"§":{"ha":688,"x_min":0,"x_max":0,"o":""},"¨":{"ha":694,"x_min":0,"x_max":0,"o":""},"©":{"ha":1135,"x_min":0,"x_max":0,"o":""},"ª":{"ha":439,"x_min":0,"x_max":0,"o":""},"«":{"ha":640,"x_min":0,"x_max":0,"o":""},"¬":{"ha":688,"x_min":0,"x_max":0,"o":""},"®":{"ha":1135,"x_min":0,"x_max":0,"o":""},"¯":{"ha":454,"x_min":0,"x_max":0,"o":""},"°":{"ha":457,"x_min":0,"x_max":0,"o":""},"±":{"ha":688,"x_min":0,"x_max":0,"o":""},"²":{"ha":688,"x_min":0,"x_max":0,"o":""},"³":{"ha":688,"x_min":0,"x_max":0,"o":""},"´":{"ha":694,"x_min":0,"x_max":0,"o":""},"µ":{"ha":800,"x_min":0,"x_max":0,"o":""},"¶":{"ha":694,"x_min":0,"x_max":0,"o":""},"·":{"ha":345,"x_min":0,"x_max":0,"o":""},"¸":{"ha":694,"x_min":0,"x_max":0,"o":""},"¹":{"ha":688,"x_min":0,"x_max":0,"o":""},"º":{"ha":487,"x_min":0,"x_max":0,"o":""},"»":{"ha":640,"x_min":0,"x_max":0,"o":""},"¼":{"ha":1158,"x_min":0,"x_max":0,"o":""},"½":{"ha":1332,"x_min":0,"x_max":0,"o":""},"¾":{"ha":1158,"x_min":0,"x_max":0,"o":""},"¿":{"ha":507,"x_min":0,"x_max":0,"o":""},"À":{"ha":1044,"x_min":0,"x_max":0,"o":""},"Á":{"ha":1044,"x_min":0,"x_max":0,"o":""},"Â":{"ha":1044,"x_min":0,"x_max":0,"o":""},"Ã":{"ha":1044,"x_min":0,"x_max":0,"o":""},"Ä":{"ha":1044,"x_min":0,"x_max":0,"o":""},"Å":{"ha":1044,"x_min":0,"x_max":0,"o":""},"Æ":{"ha":1436,"x_min":0,"x_max":0,"o":""},"Ç":{"ha":949,"x_min":0,"x_max":0,"o":""},"È":{"ha":781,"x_min":0,"x_max":0,"o":""},"É":{"ha":781,"x_min":0,"x_max":0,"o":""},"Ê":{"ha":781,"x_min":0,"x_max":0,"o":""},"Ë":{"ha":781,"x_min":0,"x_max":0,"o":""},"Ì":{"ha":446,"x_min":0,"x_max":0,"o":""},"Í":{"ha":446,"x_min":0,"x_max":0,"o":""},"Î":{"ha":446,"x_min":0,"x_max":0,"o":""},"Ï":{"ha":446,"x_min":0,"x_max":0,"o":""},"Ð":{"ha":1029,"x_min":0,"x_max":0,"o":""},"Ñ":{"ha":1054,"x_min":0,"x_max":0,"o":""},"Ò":{"ha":1095,"x_min":0,"x_max":0,"o":""},"Ó":{"ha":1095,"x_min":0,"x_max":0,"o":""},"Ô":{"ha":1095,"x_min":0,"x_max":0,"o":""},"Õ":{"ha":1095,"x_min":0,"x_max":0,"o":""},"Ö":{"ha":1095,"x_min":0,"x_max":0,"o":""},"×":{"ha":688,"x_min":0,"x_max":0,"o":""},"Ø":{"ha":1095,"x_min":0,"x_max":0,"o":""},"Ù":{"ha":1018,"x_min":0,"x_max":0,"o":""},"Ú":{"ha":1018,"x_min":0,"x_max":0,"o":""},"Û":{"ha":1018,"x_min":0,"x_max":0,"o":""},"Ü":{"ha":1018,"x_min":0,"x_max":0,"o":""},"Ý":{"ha":836,"x_min":0,"x_max":0,"o":""},"Þ":{"ha":760,"x_min":0,"x_max":0,"o":""},"ß":{"ha":848,"x_min":0,"x_max":0,"o":""},"à":{"ha":625,"x_min":0,"x_max":0,"o":""},"á":{"ha":625,"x_min":0,"x_max":0,"o":""},"â":{"ha":625,"x_min":0,"x_max":0,"o":""},"ã":{"ha":625,"x_min":0,"x_max":0,"o":""},"ä":{"ha":625,"x_min":0,"x_max":0,"o":""},"å":{"ha":625,"x_min":0,"x_max":0,"o":""},"æ":{"ha":986,"x_min":0,"x_max":0,"o":""},"ç":{"ha":614,"x_min":0,"x_max":0,"o":""},"è":{"ha":616,"x_min":0,"x_max":0,"o":""},"é":{"ha":616,"x_min":0,"x_max":0,"o":""},"ê":{"ha":616,"x_min":0,"x_max":0,"o":""},"ë":{"ha":616,"x_min":0,"x_max":0,"o":""},"ì":{"ha":349,"x_min":0,"x_max":0,"o":""},"í":{"ha":349,"x_min":0,"x_max":0,"o":""},"î":{"ha":349,"x_min":0,"x_max":0,"o":""},"ï":{"ha":349,"x_min":0,"x_max":0,"o":""},"ð":{"ha":772,"x_min":0,"x_max":0,"o":""},"ñ":{"ha":751,"x_min":0,"x_max":0,"o":""},"ò":{"ha":685,"x_min":0,"x_max":0,"o":""},"ó":{"ha":685,"x_min":0,"x_max":0,"o":""},"ô":{"ha":685,"x_min":0,"x_max":0,"o":""},"õ":{"ha":685,"x_min":0,"x_max":0,"o":""},"ö":{"ha":685,"x_min":0,"x_max":0,"o":""},"÷":{"ha":688,"x_min":0,"x_max":0,"o":""},"ø":{"ha":685,"x_min":0,"x_max":0,"o":""},"ù":{"ha":718,"x_min":0,"x_max":0,"o":""},"ú":{"ha":718,"x_min":0,"x_max":0,"o":""},"û":{"ha":718,"x_min":0,"x_max":0,"o":""},"ü":{"ha":718,"x_min":0,"x_max":0,"o":""},"ý":{"ha":589,"x_min":0,"x_max":0,"o":""},"þ":{"ha":685,"x_min":0,"x_max":0,"o":""},"ÿ":{"ha":589,"x_min":0,"x_max":0,"o":""},"ı":{"ha":349,"x_min":0,"x_max":0,"o":""},"ˆ":{"ha":694,"x_min":0,"x_max":0,"o":""},"ˇ":{"ha":694,"x_min":0,"x_max":0,"o":""},"ˉ":{"ha":694,"x_min":0,"x_max":0,"o":""},"˘":{"ha":694,"x_min":0,"x_max":0,"o":""},"˙":{"ha":694,"x_min":0,"x_max":0,"o":""},"˚":{"ha":694,"x_min":0,"x_max":0,"o":""},"˛":{"ha":694,"x_min":0,"x_max":0,"o":""},"˜":{"ha":694,"x_min":0,"x_max":0,"o":""},"˝":{"ha":694,"x_min":0,"x_max":0,"o":""},"–":{"ha":751,"x_min":0,"x_max":0,"o":""},"—":{"ha":1389,"x_min":0,"x_max":0,"o":""},"‘":{"ha":378,"x_min":0,"x_max":0,"o":""},"’":{"ha":378,"x_min":0,"x_max":0,"o":""},"‚":{"ha":378,"x_min":0,"x_max":0,"o":""},"“":{"ha":617,"x_min":0,"x_max":0,"o":""},"”":{"ha":617,"x_min":0,"x_max":0,"o":""},"„":{"ha":617,"x_min":0,"x_max":0,"o":""},"†":{"ha":688,"x_min":0,"x_max":0,"o":""},"‡":{"ha":688,"x_min":0,"x_max":0,"o":""},"•":{"ha":694,"x_min":0,"x_max":0,"o":""},"…":{"ha":1389,"x_min":0,"x_max":0,"o":""},"‹":{"ha":428,"x_min":0,"x_max":0,"o":""},"›":{"ha":428,"x_min":0,"x_max":0,"o":""},"⁄":{"ha":232,"x_min":0,"x_max":0,"o":""},"₣":{"ha":688,"x_min":0,"x_max":0,"o":""},"₤":{"ha":688,"x_min":0,"x_max":0,"o":""},"₧":{"ha":1375,"x_min":0,"x_max":0,"o":""},"€":{"ha":688,"x_min":0,"x_max":0,"o":""},"№":{"ha":1540,"x_min":0,"x_max":0,"o":""},"™":{"ha":1015,"x_min":0,"x_max":0,"o":""},"∂":{"ha":688,"x_min":0,"x_max":0,"o":""},"∆":{"ha":733,"x_min":0,"x_max":0,"o":""},"∏":{"ha":1027,"x_min":0,"x_max":0,"o":""},"∑":{"ha":818,"x_min":0,"x_max":0,"o":""},"−":{"ha":688,"x_min":0,"x_max":0,"o":""},"√":{"ha":688,"x_min":0,"x_max":0,"o":""},"∞":{"ha":688,"x_min":0,"x_max":0,"o":""},"∫":{"ha":451,"x_min":0,"x_max":0,"o":""},"≈":{"ha":688,"x_min":0,"x_max":0,"o":""},"≤":{"ha":688,"x_min":0,"x_max":0,"o":""},"≥":{"ha":688,"x_min":0,"x_max":0,"o":""},"":{"ha":728,"x_min":0,"x_max":0,"o":""},"":{"ha":733,"x_min":0,"x_max":0,"o":""}}}
